<?xml version="1.0" standalone="no"?>
<svg xmlns:xlink="http://www.w3.org/1999/xlink" id="wave" style="transform:rotate(180deg); transition: 0.3s" viewBox="0 0 1440 490" version="1.1" xmlns="http://www.w3.org/2000/svg"><defs><linearGradient id="sw-gradient-0" x1="0" x2="0" y1="1" y2="0"><stop stop-color="rgba(255, 237, 162, 1)" offset="0%"/><stop stop-color="rgba(255, 237, 162, 1)" offset="100%"/></linearGradient></defs><path style="transform:translate(0, 0px); opacity:1" fill="url(#sw-gradient-0)" d="M0,245L80,228.7C160,212,320,180,480,187.8C640,196,800,245,960,236.8C1120,229,1280,163,1440,187.8C1600,212,1760,327,1920,383.8C2080,441,2240,441,2400,441C2560,441,2720,441,2880,432.8C3040,425,3200,408,3360,400.2C3520,392,3680,392,3840,375.7C4000,359,4160,327,4320,277.7C4480,229,4640,163,4800,122.5C4960,82,5120,65,5280,106.2C5440,147,5600,245,5760,285.8C5920,327,6080,310,6240,277.7C6400,245,6560,196,6720,196C6880,196,7040,245,7200,236.8C7360,229,7520,163,7680,130.7C7840,98,8000,98,8160,147C8320,196,8480,294,8640,302.2C8800,310,8960,229,9120,179.7C9280,131,9440,114,9600,106.2C9760,98,9920,98,10080,89.8C10240,82,10400,65,10560,65.3C10720,65,10880,82,11040,114.3C11200,147,11360,196,11440,220.5L11520,245L11520,490L11440,490C11360,490,11200,490,11040,490C10880,490,10720,490,10560,490C10400,490,10240,490,10080,490C9920,490,9760,490,9600,490C9440,490,9280,490,9120,490C8960,490,8800,490,8640,490C8480,490,8320,490,8160,490C8000,490,7840,490,7680,490C7520,490,7360,490,7200,490C7040,490,6880,490,6720,490C6560,490,6400,490,6240,490C6080,490,5920,490,5760,490C5600,490,5440,490,5280,490C5120,490,4960,490,4800,490C4640,490,4480,490,4320,490C4160,490,4000,490,3840,490C3680,490,3520,490,3360,490C3200,490,3040,490,2880,490C2720,490,2560,490,2400,490C2240,490,2080,490,1920,490C1760,490,1600,490,1440,490C1280,490,1120,490,960,490C800,490,640,490,480,490C320,490,160,490,80,490L0,490Z"/><defs><linearGradient id="sw-gradient-1" x1="0" x2="0" y1="1" y2="0"><stop stop-color="rgba(255, 230, 202, 1)" offset="0%"/><stop stop-color="rgba(255, 230, 202, 1)" offset="100%"/></linearGradient></defs><path style="transform:translate(0, 50px); opacity:0.9" fill="url(#sw-gradient-1)" d="M0,0L80,49C160,98,320,196,480,204.2C640,212,800,131,960,155.2C1120,180,1280,310,1440,359.3C1600,408,1760,376,1920,326.7C2080,278,2240,212,2400,179.7C2560,147,2720,147,2880,138.8C3040,131,3200,114,3360,147C3520,180,3680,261,3840,318.5C4000,376,4160,408,4320,367.5C4480,327,4640,212,4800,187.8C4960,163,5120,229,5280,277.7C5440,327,5600,359,5760,367.5C5920,376,6080,359,6240,326.7C6400,294,6560,245,6720,236.8C6880,229,7040,261,7200,261.3C7360,261,7520,229,7680,253.2C7840,278,8000,359,8160,383.8C8320,408,8480,376,8640,351.2C8800,327,8960,310,9120,253.2C9280,196,9440,98,9600,57.2C9760,16,9920,33,10080,40.8C10240,49,10400,49,10560,81.7C10720,114,10880,180,11040,196C11200,212,11360,180,11440,163.3L11520,147L11520,490L11440,490C11360,490,11200,490,11040,490C10880,490,10720,490,10560,490C10400,490,10240,490,10080,490C9920,490,9760,490,9600,490C9440,490,9280,490,9120,490C8960,490,8800,490,8640,490C8480,490,8320,490,8160,490C8000,490,7840,490,7680,490C7520,490,7360,490,7200,490C7040,490,6880,490,6720,490C6560,490,6400,490,6240,490C6080,490,5920,490,5760,490C5600,490,5440,490,5280,490C5120,490,4960,490,4800,490C4640,490,4480,490,4320,490C4160,490,4000,490,3840,490C3680,490,3520,490,3360,490C3200,490,3040,490,2880,490C2720,490,2560,490,2400,490C2240,490,2080,490,1920,490C1760,490,1600,490,1440,490C1280,490,1120,490,960,490C800,490,640,490,480,490C320,490,160,490,80,490L0,490Z"/></svg>