<?xml version="1.0" encoding="UTF-8" standalone="no"?>
<!-- Created with Inkscape (http://www.inkscape.org/) -->

<svg
   xmlns:dc="http://purl.org/dc/elements/1.1/"
   xmlns:cc="http://creativecommons.org/ns#"
   xmlns:rdf="http://www.w3.org/1999/02/22-rdf-syntax-ns#"
   xmlns:svg="http://www.w3.org/2000/svg"
   xmlns="http://www.w3.org/2000/svg"
   xmlns:sodipodi="http://sodipodi.sourceforge.net/DTD/sodipodi-0.dtd"
   xmlns:inkscape="http://www.inkscape.org/namespaces/inkscape"
   width="210mm"
   height="297mm"
   viewBox="0 0 744.09448819 1052.3622047"
   id="svg2"
   version="1.1"
   inkscape:version="0.91 r13725"
   sodipodi:docname="drawing.svg">
  <defs
     id="defs4" />
  <sodipodi:namedview
     id="base"
     pagecolor="#ffffff"
     bordercolor="#666666"
     borderopacity="1.0"
     inkscape:pageopacity="0.0"
     inkscape:pageshadow="2"
     inkscape:zoom="0.35"
     inkscape:cx="-52.142857"
     inkscape:cy="520"
     inkscape:document-units="px"
     inkscape:current-layer="layer1"
     showgrid="false"
     inkscape:window-width="1920"
     inkscape:window-height="1018"
     inkscape:window-x="-8"
     inkscape:window-y="-8"
     inkscape:window-maximized="1" />
  <metadata
     id="metadata7">
    <rdf:RDF>
      <cc:Work
         rdf:about="">
        <dc:format>image/svg+xml</dc:format>
        <dc:type
           rdf:resource="http://purl.org/dc/dcmitype/StillImage" />
        <dc:title></dc:title>
      </cc:Work>
    </rdf:RDF>
  </metadata>
  <g
     inkscape:label="Layer 1"
     inkscape:groupmode="layer"
     id="layer1">
    <path
       style="fill:#000000"
       d="m 364.07163,1014.9819 c -1.2886,-0.5772 -8.6684,-3.5087 -16.3997,-6.5143 C 257.73513,973.50348 177.78223,915.58432 120.46574,843.87568 62.262839,771.05813 26.746299,686.45901 14.906509,592.43738 c -2.50644,-19.90402 -3.47942,-69.89548 -1.78005,-91.45857 7.74278,-98.2472 43.58667,-188.34904 104.907761,-263.70977 21.79301,-26.7826 55.89731,-59.43495 85.04751,-81.42669 44.106,-33.27486 101.12,-63.138983 156.6613,-82.059693 l 10.8996,-3.71307 9.5999,3.14304 c 34.0518,11.14861 83.7213,34.118853 115.7061,53.509573 114.8441,69.62398 193.3865,174.98244 224.1061,300.62054 21.996,89.9603 16.6427,187.67751 -15.0489,274.69595 -36.7364,100.87059 -103.0023,184.39174 -196.2656,247.37228 -28.6376,19.33885 -74.6901,43.13991 -112.0484,57.90923 -21.8514,8.6388 -27.4851,9.962 -32.6202,7.6617 z m 23.3347,-8.1345 c 79.4073,-29.77825 147.2415,-73.51395 203.9318,-131.48385 66.9498,-68.46096 110.9584,-151.58323 129.3133,-244.24336 19.693,-99.41536 6.7948,-202.82028 -36.7001,-294.22385 -9.5802,-20.13263 -19.3353,-37.08205 -34.07,-59.19642 -52.596,-78.93806 -129.906,-142.01064 -224.0665,-182.802393 -20.8427,-9.02939 -50.7574,-19.98934 -54.56,-19.98934 -6.8725,0 -47.0178,15.68218 -76.3047,29.807333 -112.4488,54.23445 -195.920671,139.84157 -242.512831,248.71652 -8.08655,18.89637 -19.67517,54.75139 -24.56229,75.99539 -21.8361404,94.92026 -14.27262,193.11703 21.9908,285.50553 24.3433,62.01956 61.777411,118.65246 110.858021,167.71358 42.0897,42.07312 89.1619,75.64759 143.6061,102.42778 24.1597,11.88377 61.4402,27.45648 65.984,27.56268 0.8561,0.02 8.5477,-2.5853 17.0924,-5.7896 z m -34.4631,-19.86146 C 219.26103,935.16245 117.66003,839.37661 66.099959,716.56035 c -16.80114,-40.0204 -28.08748,-83.3456 -33.70853,-129.3979 -2.89823,-23.74478 -2.89686,-75.91721 0.003,-99.62587 10.92224,-89.30944 40.91806,-161.96531 95.766621,-231.96586 12.94273,-16.51819 53.15505,-56.67258 70.74275,-70.64085 46.4052,-36.85529 99.8918,-66.2376 156.3655,-85.897703 l 15.7444,-5.4811 12.3431,4.26049 c 35.1131,12.120073 83.3998,34.985593 112.3167,53.186133 113.5889,71.49359 187.9364,178.3857 212.054,304.87762 15.3472,80.49301 7.6002,167.96467 -21.6978,244.99117 -22.7974,59.93618 -57.0515,113.45683 -102.318,159.86809 -42.6142,43.69188 -84.7313,74.25104 -141.3997,102.59635 -27.8035,13.90718 -66.0355,29.47231 -72.1483,29.37319 -1.4176,-0.023 -9.1667,-2.59616 -17.2201,-5.71817 z m 42.1581,-6.68924 c 121.9478,-48.59311 215.1346,-131.22423 268.8439,-238.39072 19.2277,-38.36501 34.4548,-85.07167 41.4683,-127.19668 4.6741,-28.07433 5.3941,-38.08745 5.3941,-75.02122 0,-22.77586 -0.5696,-40.93216 -1.5261,-48.64658 -4.2168,-34.00983 -10.7199,-63.35404 -20.5851,-92.8872 -42.1002,-126.0339 -137.2441,-225.92798 -268.6503,-282.06285 -20.7012,-8.84322 -45.2782,-17.739133 -49.0085,-17.739133 -3.7265,0 -28.1692,8.863393 -48.8647,17.719293 -98.2584,42.04608 -174.77564,107.1894 -225.804131,192.23941 -78.76007,131.27075 -83.65583,296.9912 -12.89558,436.51321 24.180031,47.67713 52.499471,86.01297 92.285311,124.92609 48.856,47.78418 105.0133,84.00896 172.4991,111.27208 15.3628,6.2063 21.3771,8.11856 24.0013,7.63129 1.9259,-0.35761 12.205,-4.11825 22.8424,-8.35699 z m -44.5009,-16.59896 c 0,-1.23513 1.4112,-2.62044 3.4563,-3.3929 6.3249,-2.38903 9.7137,-10.93565 11.3587,-28.64659 l 0.768,-8.2694 -5.7415,0.74832 c -19.1408,2.49472 -29.9454,6.74758 -30.7154,12.09005 -0.2701,1.87396 -1.1747,2.59719 -3.2484,2.59719 l -2.8741,0 0.3199,-20.80667 c 0.3062,-19.91849 0.4199,-20.80666 2.6627,-20.80666 1.5244,0 2.4713,0.90418 2.7107,2.58826 0.7175,5.04822 13.0169,10.0486 28.4626,11.57162 l 8.4094,0.82922 -0.8305,-7.49455 c -1.9397,-17.50292 -6.9728,-29.18037 -12.5771,-29.18037 -1.3803,0 -2.1613,-0.84712 -2.1613,-2.34442 0,-2.25758 0.781,-2.34441 21.0853,-2.34441 20.3044,0 21.0853,0.0869 21.0853,2.34441 0,1.53352 -0.7809,2.34442 -2.2578,2.34442 -4.8902,0 -9.6052,10.10855 -11.7552,25.20244 -0.6429,4.51299 -1.1793,8.86481 -1.1921,9.6707 -0.03,1.9105 6.2289,1.83566 17.6989,-0.21158 12.2349,-2.18378 17.1797,-4.68657 18.3744,-9.30023 0.6541,-2.52593 1.6612,-3.67551 3.2201,-3.67551 2.1463,0 2.2855,1.11935 2.5882,20.80666 l 0.3199,20.80667 -2.8777,0 c -2.2613,0 -2.9572,-0.68422 -3.2484,-3.19416 -0.6571,-5.66263 -9.8588,-9.26769 -29.4721,-11.54663 l -6.8448,-0.79532 0.7845,8.0611 c 0.9955,10.2285 3.6805,21.28263 6.0477,24.8979 1.0092,1.54125 3.3603,3.37845 5.2247,4.08264 1.9907,0.75193 3.3897,2.14192 3.3897,3.3678 0,1.92445 -1.6462,2.08742 -21.0853,2.08742 -19.4391,0 -21.0853,-0.16297 -21.0853,-2.08742 z m 3.5142,-112.62987 c -49.5037,-20.44354 -89.8177,-46.69223 -123.6527,-80.51101 -62.8497,-62.81969 -96.77143,-143.96038 -96.76212,-231.45488 0.004,-32.53997 3.79781,-59.7921 12.46767,-89.5464 29.00745,-99.55159 108.61285,-179.76891 214.57345,-216.22306 l 10.7263,-3.6902 11.7545,4.09429 c 51.5522,17.9564 95.8519,45.06133 132.9764,81.36208 50.1868,49.07327 80.8251,108.32594 92.3865,178.66992 2.1594,13.13836 2.538,20.1638 2.538,47.09168 0,26.92788 -0.3786,33.95333 -2.538,47.09168 -15.9388,96.97785 -69.7397,177.04021 -154.9005,230.51102 -24.6877,15.50096 -74.3357,38.41852 -82.8366,38.23751 -1.7939,-0.0382 -9.3237,-2.57288 -16.7329,-5.63263 z m 34.4006,-4.17803 c 51.9463,-20.85865 92.6068,-47.7153 129.0105,-85.21251 47.8124,-49.24869 76.9558,-107.86755 87.4301,-175.85638 3.7218,-24.15805 3.7218,-65.76327 0,-89.92133 -15.4491,-100.28071 -74.3706,-182.68416 -167.2228,-233.86618 -13.9002,-7.66207 -38.6483,-18.73319 -54.1726,-24.23422 -12.9097,-4.57455 -12.6009,-4.61625 -37.0599,5.00522 -78.3973,30.83927 -141.1351,86.5807 -176.23,156.57739 -41.77554,83.32118 -44.0772,180.34592 -6.3406,267.28453 16.1911,37.3015 38.9024,70.44585 68.8854,100.52956 34.8194,34.93637 73.2579,60.02015 123.0564,80.3029 7.7313,3.14892 14.6732,5.73188 15.4264,5.73991 0.7533,0.008 8.5009,-2.84897 17.2171,-6.34889 z m -29.7149,-8.90751 c -6.7649,-2.54669 -21.2611,-9.08519 -32.2137,-14.52999 -98.2357,-48.83517 -163.4312,-136.49765 -178.72331,-240.31302 -17.68225,-120.04164 37.22731,-236.20372 142.48141,-301.422 16.3229,-10.11414 45.9916,-24.49189 65.335,-31.66208 l 15.0362,-5.5736 8.3919,2.67021 c 20.8156,6.62327 49.9431,20.13741 71.6478,33.242 57.8836,34.94835 103.1963,87.10068 127.5148,146.7624 15.0151,36.83717 22.021,72.9829 22.0384,113.70404 0.01,22.80868 -1.4622,38.54695 -5.4814,58.61033 -19.3596,96.63922 -81.7908,176.06981 -174.9788,222.62374 -12.9726,6.48071 -39.7365,17.92567 -46.4058,19.84433 -1.3447,0.38686 -7.5826,-1.29859 -14.6425,-3.95636 z m 27.0085,-4.73349 c 81.5587,-31.77271 144.7082,-88.18555 180.3398,-161.10142 19.8258,-40.57127 28.8065,-77.14011 30.1031,-122.57748 0.7028,-24.63252 -0.5436,-42.17872 -4.4909,-63.21726 -20.2408,-107.88117 -98.1612,-194.8323 -209.9934,-234.33115 l -10.1212,-3.57479 -12.5728,4.53382 c -83.054,29.94961 -147.9166,86.78601 -182.3555,159.79053 -19.0868,40.46065 -27.9295,80.45798 -27.9295,126.33089 0,47.02576 9.8423,90.23066 30.0357,131.84836 27.1955,56.04862 65.9046,98.64313 121.4059,133.5919 20.5261,12.92517 63.9268,33.3919 70.9362,33.45181 1.325,0.0117 7.9141,-2.12401 14.6426,-4.74521 z m -110.1783,-73.78986 c -12.5564,-1.71406 -28.4823,-5.73182 -32.5625,-8.21482 -6.2932,-3.82972 -6.0322,-5.32774 2.2345,-12.83024 4.1171,-3.73639 8.3894,-8.35605 9.494,-10.2659 l 2.0085,-3.47244 -6.1084,1.63799 c -6.7684,1.81499 -15.6894,1.20236 -20.7691,-1.42627 -4.1896,-2.16798 -5.8477,-6.56517 -5.9637,-15.81537 -0.4956,-39.51045 -0.7941,-35.96822 3.9696,-47.11496 2.3953,-5.60475 4.3551,-11.9708 4.3551,-14.14677 0,-8.92933 3.3932,-16.20649 11.4518,-24.55942 9.6428,-9.99507 16.7948,-12.68186 33.4778,-12.57662 19.3415,0.122 32.4488,5.41753 47.1572,19.05219 9.2605,8.58443 10.8863,12.76148 7.7104,19.80942 -1.2463,2.7657 -3.8711,6.53484 -5.8328,8.37586 -3.4726,3.25884 -3.5509,3.56865 -2.965,11.72207 0.5356,7.45419 0.058,10.17868 -4.3487,24.78565 -5.7529,19.07142 -9.1971,26.50579 -13.8869,29.97547 -2.9655,2.19402 -3.4682,3.47866 -4.1768,10.67493 -0.6153,6.24892 -0.3288,9.69767 1.2136,14.6046 1.799,5.7234 1.8267,6.6165 0.2539,8.19041 -2.2114,2.2129 -16.1058,3.04212 -26.7125,1.59422 z m 22.6426,-7.30846 c -0.5344,-2.09532 -0.9482,-8.33645 -0.9195,-13.86919 l 0.052,-10.05951 -8.0069,-1.37397 c -8.6921,-1.49155 -17.7156,-5.50651 -21.3025,-9.47835 l -2.2627,-2.50569 -3.871,8.36299 c -2.7765,5.99834 -6.0077,10.45938 -11.4275,15.77715 -8.4096,8.25136 -8.3896,8.43333 1.2772,11.5881 9.9426,3.24482 22.4943,5.10676 35.3324,5.24132 l 12.1,0.12682 -0.9716,-3.80967 z m -44.9431,-30.62169 c 4.7548,-2.17722 8.2436,-8.51464 8.2436,-14.97466 0,-6.2049 -1.6232,-7.59583 -2.8755,-2.46412 -1.0967,4.49383 -6.2215,11.66282 -10.5082,14.6999 l -3.6017,2.55175 1.8797,-2.91132 c 4.4966,-6.96456 9.1597,-16.17223 10.4785,-20.69037 1.2027,-4.12067 1.102,-6.08122 -0.6433,-12.53349 -1.2974,-4.7962 -1.8557,-9.87039 -1.497,-13.6059 0.5293,-5.51195 0.4255,-5.82452 -1.3881,-4.18205 -3.1921,2.89079 -7.0727,11.71198 -7.0727,16.07744 0,7.02842 -3.4782,14.79776 -9.6501,21.55543 -6.1668,6.75198 -9.3321,8.01626 -3.9019,1.55848 5.2374,-6.22854 8.8558,-14.65698 9.6351,-22.44297 0.8959,-8.95146 3.378,-14.08578 9.7774,-20.22497 5.2073,-4.99561 12.7233,-18.1692 10.3662,-18.1692 -0.758,0 -4.2381,0.90213 -7.7336,2.00473 -5.7785,1.82277 -6.8083,2.70051 -11.3462,9.6707 -8.1939,12.58605 -10.3258,13.25571 -4.6983,1.47584 2.6978,-5.64729 5.7633,-10.98045 6.8121,-11.85148 1.0488,-0.87104 6.0843,-2.18098 11.1899,-2.91097 6.5097,-0.93075 10.0973,-2.07362 12.0088,-3.82554 1.4992,-1.37405 4.7306,-3.50805 7.1808,-4.74222 l 4.4549,-2.24396 -4.8473,-5.51062 c -4.5673,-5.1922 -5.197,-5.51537 -10.8977,-5.59301 -10.7374,-0.14621 -11.6953,-1.86986 -1.58,-2.84319 8.9594,-0.86211 9.229,-0.81088 12.5655,2.38785 1.8753,1.79787 3.9898,5.02807 4.699,7.17823 0.8758,2.65574 2.0227,3.90936 3.5765,3.90936 1.258,0 5.4183,1.31874 9.2451,2.93052 8.8426,3.72432 10.5601,3.67809 14.454,-0.38913 l 3.1783,-3.31964 -2.4584,-3.12749 c -2.8175,-3.58429 -0.9797,-4.30801 3.308,-1.30272 3.1539,2.2106 3.3747,6.49107 0.4705,9.12116 -2.0502,1.8566 -1.9594,2.29625 2.3365,11.31764 2.5683,5.39335 5.1957,9.386 6.1766,9.386 2.5013,0 8.8481,-9.83966 8.8481,-13.71755 0,-4.88319 -5.6495,-10.99839 -17.4711,-18.91111 -12.3533,-8.26861 -18.7068,-10.12845 -34.6564,-10.14484 -15.0201,-0.0155 -20.1725,1.61023 -28.4599,8.97951 -8.1554,7.25182 -11.5675,13.41598 -12.5422,22.65803 -0.408,3.86828 -2.6828,11.78067 -5.0551,17.5831 -4.1419,10.13071 -4.3054,11.06213 -4.116,23.44413 0.3824,24.99407 0.8847,30.88909 2.7951,32.80134 3.6718,3.67551 16.5992,4.41908 23.3205,1.34138 z m 50.7186,-1.61399 c 3.8376,-4.0093 5.6319,-8.28087 11.4673,-27.29917 4.8598,-15.83878 5.386,-20.03433 3.4069,-27.16526 -1.0101,-3.63953 -1.9206,-4.55064 -5.5577,-5.56144 -2.3923,-0.66487 -6.1506,-1.21179 -8.3519,-1.21538 -5.0517,-0.008 -3.9761,-1.15099 2.6739,-2.84062 l 5.1521,-1.30909 -2.2303,-5.98293 c -2.1572,-5.78695 -2.3751,-5.97913 -6.6523,-5.8669 -2.5547,0.067 -7.538,-1.28331 -11.801,-3.19771 -7.2298,-3.24676 -7.4791,-3.27545 -12.3354,-1.41953 -6.7234,2.56944 -11.6531,7.68735 -15.7379,16.33882 -7.0716,14.97727 -7.4227,19.78375 -2.5588,35.02782 1.9052,5.97131 3.8251,13.14623 4.2664,15.94426 1.55,9.82675 13.851,17.58733 28.071,17.70961 6.2601,0.0538 7.468,-0.32112 10.1877,-3.16248 z m -9.2196,-9.03449 c -2.0954,-1.53325 -2.0384,-1.66055 1.0954,-2.44761 4.1867,-1.05152 6.7346,1.05542 3.4218,2.82959 -1.709,0.91523 -2.8796,0.81625 -4.5172,-0.38198 z m -6.9391,-5.80355 c -1.6386,-1.20457 -1.7959,-1.64787 -0.5454,-1.5375 0.9664,0.0853 3.7427,-0.27779 6.1694,-0.80688 4.3465,-0.94761 11.9728,0.94993 10.8865,2.70872 -1.0103,1.63585 -14.1851,1.34511 -16.5105,-0.36434 z m 1.2879,-9.98708 c -1.5679,-1.73369 -1.7549,-2.75757 -0.8028,-4.39577 1.0891,-1.87413 1.2455,-1.89641 1.2767,-0.18195 0.044,2.43633 1.5208,2.95069 6.7244,2.34277 3.9029,-0.45596 4.0544,-0.64554 3.3135,-4.14544 -0.427,-2.0172 -1.0172,-6.56885 -1.3115,-10.11477 l -0.5351,-6.44714 1.6882,5.86104 c 0.9286,3.22356 2.2563,7.34597 2.9506,9.16091 0.6943,1.81492 1.2624,4.01909 1.2624,4.89814 0,5.11911 -10.6682,7.33254 -14.5664,3.02221 z m 17.6901,-23.13767 c -0.4295,-0.4298 -0.7809,-1.67539 -0.7809,-2.76795 0,-1.50736 -0.777,-1.86538 -3.2214,-1.48433 l -3.2213,0.50216 2.9104,-2.54049 c 3.6462,-3.18282 10.8667,-2.56451 14.5397,1.24508 l 2.4638,2.55539 -2.7398,-0.82066 c -2.0504,-0.61419 -3.1724,-0.2026 -4.4592,1.6358 -1.7164,2.45209 -4.0143,3.15302 -5.4913,1.675 z m -28.3453,-2.84974 c -0.582,-1.83494 -1.4939,-2.32243 -3.5931,-1.92087 -4.1146,0.78709 -3.4336,-1.22306 1.1563,-3.41335 4.4016,-2.10037 10.5009,-1.53483 14.2766,1.32373 2.1537,1.63058 2.1143,1.70776 -0.889,1.7434 -2.0933,0.0249 -3.3907,0.81996 -3.886,2.38169 -1.0243,3.22947 -6.0299,3.14827 -7.0648,-0.11465 z m -7.1093,-9.05771 c 3.0214,-3.44364 9.2584,-5.0568 13.6406,-3.52811 4.8786,1.70185 3.4603,2.86645 -4.5055,3.6996 -3.7778,0.39513 -7.8794,1.08893 -9.1147,1.54177 -2.2078,0.80935 -2.2082,0.78025 -0.02,-1.71326 z m 176.7643,97.0384 c -5.1206,-1.58412 -5.5246,-2.69501 -3.1979,-8.79165 1.5457,-4.05001 1.8551,-7.32921 1.3377,-14.17518 -0.624,-8.2562 -0.9652,-9.17442 -4.6748,-12.5795 -5.4535,-5.00576 -6.7774,-7.91201 -13.1538,-28.87563 -4.9816,-16.37776 -5.4566,-18.93013 -4.8181,-25.8866 0.6642,-7.236 0.5192,-7.89409 -2.3242,-10.54986 -4.3026,-4.01864 -7.4902,-10.79491 -7.4902,-15.92267 0,-3.84393 0.9143,-5.28474 7.3263,-11.54527 14.627,-14.28153 29.3932,-20.44348 49.0706,-20.47715 15.5749,-0.0266 23.1174,2.79535 32.8855,12.30397 8.2654,8.04587 11.4585,14.667 11.4585,23.76029 0,2.20357 2.1422,9.32351 4.7605,15.82209 4.269,10.59553 4.7753,12.91356 4.9034,22.44845 0.1793,13.35082 -1.2534,30.70996 -2.8896,35.01142 -2.3942,6.2938 -14.2321,9.27995 -25.1652,6.34794 -6.035,-1.61846 -6.0792,-1.61094 -4.8061,0.81698 0.7068,1.34778 4.9429,5.97947 9.4137,10.29266 9.5133,9.17793 9.6585,11.13276 1.1012,14.81655 -12.3605,5.32098 -45.4566,9.74499 -53.7375,7.18316 z m 31.4168,-5.19077 c 10.4151,-1.82844 20.4231,-4.58431 23.2253,-6.39545 1.3452,-0.86945 0.1006,-2.67323 -6.0498,-8.76755 -6.8468,-6.78434 -11.5946,-14.18292 -14.2947,-22.27544 -0.7011,-2.10129 -0.9406,-2.0518 -3.9334,0.81287 -4.4525,4.26197 -14.8775,8.72541 -22.5149,9.63969 l -6.4427,0.77127 0,10.74551 c 0,5.91003 -0.4525,12.19612 -1.0056,13.96908 l -1.0055,3.22357 11.1019,0 c 6.106,0 15.5198,-0.77559 20.9194,-1.72355 z m 35.7925,-32.96221 c 5.1043,-3.18703 4.6596,-6.15044 -1.7672,-11.77624 -7.0838,-6.20101 -11.787,-15.19495 -12.7307,-24.3451 -0.4724,-4.58017 -1.8328,-8.43651 -4.4307,-12.55951 l -3.7489,-5.94989 0.052,6.85459 c 0.029,3.77002 -0.8866,9.62168 -2.0341,13.00369 -2.5165,7.41694 -1.8753,10.09695 5.9604,24.91437 l 5.269,9.96375 -4.9075,-4.68882 c -5.1255,-4.89714 -9.3819,-11.89949 -9.4126,-15.48504 -0.015,-1.78337 -0.1882,-1.83433 -1.1534,-0.33975 -2.7714,4.2913 -0.241,14.87984 4.6045,19.26793 4.2704,3.86737 18.8364,4.55076 24.2989,1.14002 z m -49.3825,-0.58882 c 8.8418,-3.31039 15.7934,-9.96588 15.7934,-15.12062 0,-2.12846 1.6328,-8.93567 3.6284,-15.12713 4.8367,-15.00587 4.4071,-21.48204 -2.367,-35.68486 -4.1898,-8.78456 -5.7096,-10.79772 -10.4052,-13.78291 -7.7896,-4.95221 -9.4982,-5.11238 -17.3012,-1.62183 -3.817,1.70752 -9.0256,3.22439 -11.5745,3.37082 -4.3813,0.25171 -4.7801,0.59859 -7.2985,6.3488 l -2.6639,6.08254 3.1985,0.0415 c 1.7592,0.0229 4.5164,0.79539 6.127,1.71677 l 2.9286,1.67523 -4.1,0.0481 c -2.2549,0.0265 -6.0161,0.58069 -8.3581,1.23168 -3.7456,1.04111 -4.4154,1.8083 -5.5642,6.37356 -1.9126,7.60098 -1.7792,8.54253 3.7908,26.75542 5.675,18.5565 8.8334,25.5863 12.7193,28.30994 3.7052,2.59696 13.6246,2.31158 21.4466,-0.61703 z m -19.0014,-9.89564 c -1.9502,-1.43694 -1.9592,-1.60698 -0.1229,-2.31956 2.5972,-1.0079 5.9108,-0.32517 6.462,1.33142 0.6703,2.01493 -3.965,2.73748 -6.3391,0.98814 z m -4.4939,-5.31015 c -1.1055,-1.79002 6.468,-3.70554 10.8626,-2.7474 2.4268,0.52909 5.203,0.89218 6.1694,0.80688 1.2764,-0.11265 1.143,0.29643 -0.4875,1.49519 -2.3056,1.69506 -15.5524,2.05164 -16.5445,0.44533 z m 2.5532,-10.29329 c -1.8302,-2.02372 -1.8102,-2.64777 0.31,-9.6707 1.2465,-4.12906 2.5112,-8.56236 2.8104,-9.85179 0.3131,-1.34912 0.5895,-0.60264 0.6512,1.75831 0.059,2.2565 -0.4252,6.41418 -1.0761,9.23931 -0.6509,2.82511 -1.0333,5.25604 -0.8499,5.40205 0.1834,0.14602 2.3378,0.57522 4.7875,0.95377 3.8381,0.59309 4.5914,0.33231 5.4469,-1.88545 0.8568,-2.2212 1.1014,-2.3053 1.786,-0.61395 0.4363,1.07786 0.207,3.05596 -0.5096,4.39577 -1.7507,3.27354 -10.4813,3.45179 -13.3564,0.27268 z m -9.7821,-24.80073 c -0.5055,-1.93413 -1.3358,-2.42365 -3.4312,-2.0228 -1.5204,0.29083 -2.7644,0.088 -2.7644,-0.45075 0,-1.40931 6.4727,-4.55638 9.3712,-4.55638 2.5879,0 9.3713,3.08784 9.3713,4.26587 0,0.37898 -1.5572,0.46035 -3.4604,0.18083 -2.8033,-0.41172 -3.5262,-0.0497 -3.8071,1.90633 -0.4888,3.40471 -4.4344,3.91058 -5.2794,0.6769 z m 26.9431,-1.1689 c -0.407,-1.55758 -1.5978,-2.34441 -3.5479,-2.34441 -2.453,0 -2.6999,-0.28386 -1.5028,-1.72729 3.299,-3.97783 13.9855,-3.21315 17.7008,1.26658 1.1207,1.35128 0.7535,1.51149 -2.1378,0.93284 -2.8744,-0.57527 -3.6042,-0.26465 -4.133,1.75902 -0.8478,3.24417 -5.5393,3.32747 -6.3793,0.11324 z m 9.6176,-8.20544 c -1.9328,-0.49215 -5.4599,-0.95724 -7.8379,-1.03353 -5.8814,-0.18865 -6.6377,-2.09537 -1.4046,-3.54128 4.7336,-1.3079 10.2805,0.29277 13.193,3.80713 1.7265,2.08332 1.4372,2.13955 -3.9505,0.76768 z m 47.361,46.59521 c 0.015,-2.74004 0.3478,-10.82171 0.7383,-17.95927 0.7065,-12.9107 0.688,-13.03423 -3.5973,-24.03024 -2.3692,-6.07906 -4.7697,-14.60369 -5.3346,-18.94361 -1.3322,-10.23475 -4.1766,-15.60788 -12.0977,-22.85222 -5.4338,-4.96959 -7.777,-6.22493 -14.8627,-7.96255 -9.9731,-2.44573 -25.2024,-1.8611 -34.4637,1.32298 -11.8943,4.08931 -30.1487,18.1731 -31.7309,24.48123 -0.9115,3.63435 0.9464,8.42262 4.9405,12.73306 4.4948,4.85076 5.0811,4.36443 11.2971,-9.37065 2.6403,-5.83399 2.6596,-6.1038 0.6167,-8.62836 -1.1598,-1.43334 -2.1088,-3.33886 -2.1088,-4.2345 0,-2.24744 4.2676,-6.31728 6.6243,-6.31728 1.8039,0 1.8039,0.14897 0,2.14366 -2.589,2.86269 -2.4433,4.78707 0.6083,8.0376 3.2512,3.46313 6.2473,3.41913 14.0292,-0.20605 3.4464,-1.60549 7.6499,-2.92422 9.3412,-2.93052 2.4625,-0.009 3.2122,-0.69861 3.7645,-3.46198 0.3793,-1.8978 2.1927,-5.13388 4.0297,-7.19128 l 3.3401,-3.74074 9.1761,0.86046 c 10.4927,0.98392 10.0035,2.92525 -0.7445,2.95429 -6.3413,0.0171 -6.8355,0.24139 -10.8355,4.91777 -4.9289,5.76219 -5.0761,6.54362 -1.4895,7.90815 1.4859,0.56534 4.4838,2.53038 6.6621,4.36676 3.1083,2.62048 5.9299,3.62361 13.1141,4.66218 5.0346,0.72781 9.9902,2.0179 11.0124,2.86684 1.0222,0.84894 4.2103,6.31963 7.0846,12.15707 l 5.226,10.61354 -3.8651,-4.22739 c -2.1259,-2.32507 -5.4466,-6.80876 -7.3794,-9.96376 -2.9322,-4.78631 -4.4842,-6.06054 -9.3712,-7.69375 -10.2118,-3.41272 -10.5052,-3.17223 -6.3202,5.18095 2.0188,4.02946 6.457,10.26768 9.8626,13.86271 6.5101,6.87224 8.7393,12.09111 8.7508,20.48724 0.01,5.39035 3.9991,14.1708 9.4303,20.74376 1.9978,2.41768 3.8329,4.39577 4.0781,4.39577 0.2453,0 0.4586,-2.24184 0.4741,-4.98187 z m -166.2587,-75.37575 c -0.9664,-0.20659 -4.2708,-0.7067 -7.3432,-1.11135 -3.223,-0.42449 -6.8708,-1.84151 -8.623,-3.34971 l -3.0369,-2.61399 4.1371,-8.7399 c 6.2628,-13.23068 10.3994,-31.59794 7.1164,-31.59794 -0.2588,0 -2.5492,1.50686 -5.0899,3.34857 -5.4935,3.98221 -14.0188,6.59854 -18.1337,5.56507 -3.6833,-0.92507 -10.8024,-7.0834 -12.877,-11.139 -2.59,-5.06331 -3.2139,-14.09698 -1.8799,-27.22009 2.3201,-22.82388 8.9775,-41.96354 17.4935,-50.29221 l 5.4218,-5.30255 -8.9253,-15.74151 c -4.9089,-8.65782 -9.6593,-15.96557 -10.5564,-16.23942 -7.0243,-2.1442 -9.3154,-11.95799 -4.0272,-17.24979 7.4897,-7.49489 19.9122,1.41691 15.8053,11.33863 -1.1872,2.86815 -0.9783,3.96893 1.5782,8.31829 1.6205,2.75698 4.3144,6.2915 5.9863,7.85448 l 3.04,2.84181 2.8857,-2.71284 c 1.5872,-1.49205 4.5488,-5.93582 6.5814,-9.87503 l 3.6956,-7.16221 6.1259,6.15409 c 6.7438,6.77486 11.2539,8.02961 13.5345,3.76539 1.8656,-3.48827 0.3586,-6.9719 -5.3053,-12.26389 -9.0352,-8.44201 -9.5306,-20.03614 -1.1698,-27.38196 7.4115,-6.51188 18.5324,-6.00449 24.5222,1.11883 3.7259,4.43097 4.645,7.89509 3.885,14.6421 -0.4838,4.29524 -1.6677,6.37699 -6.5872,11.58212 -6.0474,6.39862 -7.4418,10.43283 -4.5917,13.28484 2.9133,2.91523 6.8781,1.47552 13.1098,-4.76037 l 6.1628,-6.16702 3.2062,6.60494 c 1.7634,3.63273 4.7352,8.07078 6.6039,9.86235 4.0866,3.91783 5.2691,3.2718 11.3293,-6.18905 3.1613,-4.93526 3.7044,-6.60801 2.7346,-8.42144 -2.1605,-4.0397 -1.3666,-8.302 2.2138,-11.88485 3.816,-3.81858 6.8051,-4.25506 11.7204,-1.7115 7.0881,3.6679 6.4939,13.70322 -1.0423,17.60299 -2.467,1.27664 -5.9848,6.34368 -12.8257,18.47438 l -9.4263,16.71529 4.6959,3.93626 c 6.4798,5.43148 7.4732,7.80876 12.131,29.03003 5.3154,24.21723 6.5316,32.05999 6.5424,42.1899 0.01,9.851 -1.5178,12.42447 -10.1792,17.14184 -11.19,6.09453 -18.7537,6.05722 -24.2572,-0.11966 -3.5919,-4.0315 -4.1085,-2.96768 -2.3412,4.82172 2.6953,11.87978 5.2034,18.87773 7.751,21.62618 4.8999,5.28621 -0.5405,8.81187 -16.7329,10.8436 -8.9647,1.12484 -30.8246,1.48872 -35.0587,0.58358 z m 30.7309,-4.06421 c 6.9158,-0.65626 13.8921,-1.69462 15.5029,-2.30745 l 2.9287,-1.11426 -2.2059,-3.84564 c -2.3596,-4.11386 -4.9235,-12.57724 -7.1128,-23.48011 -0.7444,-3.7071 -1.5563,-6.74018 -1.8041,-6.74018 -0.2479,0 -2.3913,1.31788 -4.7633,2.92864 -9.1601,6.22045 -19.5694,6.68844 -29.866,1.34274 -4.091,-2.12394 -5.9825,-2.60603 -6.2898,-1.60303 -0.2417,0.7889 -1.5888,5.37726 -2.9936,10.19635 -1.4048,4.81909 -3.8209,11.26334 -5.369,14.32056 -1.5482,3.05722 -2.8148,6.06578 -2.8148,6.68569 0,0.61991 2.7674,1.69696 6.1498,2.39345 12.144,2.50057 21.9168,2.80997 38.6379,1.22324 z m -2.4801,-35.80023 c 5.6684,-2.93328 10.2337,-7.57815 11.6404,-11.84334 0.7651,-2.31999 3.2502,-7.34113 5.5224,-11.15808 l 4.1313,-6.93993 -0.7821,-15.47124 c -0.9044,-17.89329 -1.6812,-23.12069 -3.5174,-23.67332 -0.7247,-0.21811 -4.3292,-1.29727 -8.0099,-2.39814 -3.6807,-1.10088 -9.3934,-3.78175 -12.6948,-5.95751 -3.3015,-2.17574 -6.2599,-3.9559 -6.5742,-3.9559 -0.3143,0 -4.09,2.08025 -8.3904,4.62277 -4.3005,2.54253 -11.0455,5.5113 -14.9891,6.59726 l -7.17,1.97448 -0.7369,7.05508 c -1.4781,14.1511 -0.8727,21.10827 2.7773,31.9136 1.9328,5.72195 3.5142,11.98908 3.5142,13.92698 0,4.70073 10.5101,15.0946 17.0863,16.8974 5.3083,1.45519 13.7304,0.71908 18.1929,-1.59011 z m -12.7625,-11.25948 c 0.6051,-1.81651 4.2862,-2.12208 4.7185,-0.39169 0.161,0.64471 -0.9519,1.34847 -2.4733,1.5639 -1.8964,0.26853 -2.6024,-0.1 -2.2452,-1.17221 z m -5.5313,-5.73076 c 2.5771,-1.22034 5.8886,-2.23262 7.3589,-2.24954 2.839,-0.0327 10.7979,2.92463 10.7979,4.01217 0,0.35526 -5.1396,0.60322 -11.4212,0.55103 l -11.4213,-0.095 4.6857,-2.21877 z m 2.9285,-6.90717 c -3.2876,-0.51963 -4.1681,-1.2287 -4.4437,-3.57855 -0.2512,-2.14168 -0.047,-2.49138 0.7574,-1.29914 0.7778,1.1523 2.64,1.4578 6.3414,1.04032 2.8821,-0.32508 6.0683,-0.12729 7.0804,0.43952 1.2732,0.713 2.1688,0.4432 2.9063,-0.87557 0.8966,-1.60329 1.1696,-1.63606 1.7178,-0.20629 0.3586,0.93492 0.3053,2.23233 -0.1183,2.88312 -0.9962,1.53057 -8.9895,2.4267 -14.2413,1.59659 z m 0.039,-10.26104 c -0.021,-1.41887 0.5465,-5.3117 1.2621,-8.65073 0.9068,-4.23109 1.6114,-5.58077 2.3249,-4.45347 1.8458,2.91627 1.1608,10.02781 -1.2442,12.91665 l -2.3038,2.76732 -0.039,-2.57977 z m -13.7478,-14.38418 c -0.5457,-2.08809 -1.2508,-2.38127 -4.3073,-1.79091 l -3.6549,0.70591 3.2867,-2.99063 c 3.6459,-3.31754 9.0366,-3.90947 14.501,-1.59231 l 3.2976,1.39836 -3.1492,0.43085 c -2.1775,0.29791 -3.2618,1.22274 -3.5142,2.99742 -0.5127,3.60468 -5.5656,4.26277 -6.4597,0.84131 z m 30.8894,1.52989 c -0.4295,-0.4298 -0.7809,-1.71349 -0.7809,-2.85264 0,-1.37187 -1.0877,-2.21902 -3.2214,-2.50901 l -3.2214,-0.43782 3.2976,-1.39836 c 5.3969,-2.28853 10.8516,-1.71958 14.501,1.51254 l 3.2867,2.91089 -3.6408,-0.67974 c -3.0173,-0.5633 -3.7509,-0.25878 -4.2831,1.77795 -0.6158,2.35618 -4.2367,3.37836 -5.9377,1.67619 z m -38.2659,-9.06285 c 0,-0.40699 1.7132,-1.78525 3.807,-3.06279 4.4116,-2.69165 10.039,-3.01535 13.1279,-0.75516 1.9291,1.41156 1.4931,1.65613 -4.1689,2.33881 -3.4778,0.41932 -7.7729,1.09016 -9.5447,1.49076 -1.7717,0.40059 -3.2213,0.39537 -3.2213,-0.0117 z m 44.5134,-0.70553 c -1.6107,-0.51618 -5.0371,-1.00979 -7.6142,-1.09691 -4.6664,-0.15773 -4.6736,-0.16522 -1.7571,-1.83361 1.6107,-0.92138 4.1356,-1.69393 5.6109,-1.71676 2.5682,-0.0397 11.9602,4.08856 11.9602,5.2572 0,0.82869 -4.8324,0.46925 -8.1998,-0.60992 z m 23.9211,51.57709 c -0.09,-7.43828 -1.2374,-10.7638 -6.018,-17.44849 l -1.9994,-2.79591 3.7507,1.94091 c 5.7359,2.96818 8.887,10.14174 8.129,18.50608 l -0.6137,6.7732 3.2601,-1.68702 c 12.0393,-6.23003 13.6609,-12.43649 5.4074,-20.69571 -3.9142,-3.91687 -5.6294,-6.85858 -7.0952,-12.16935 -2.5873,-9.37363 -5.1733,-15.24937 -9.0968,-20.66931 -4.6342,-6.40164 -2.0855,-5.57853 4.123,1.33158 4.0527,4.51069 5.7172,7.63721 7.3328,13.77343 2.1809,8.28369 6.6532,18.37779 8.7045,19.64644 1.6488,1.0197 1.5282,-0.7259 -1.1221,-16.23911 -2.9528,-17.28356 -6.6445,-31.40805 -8.5207,-32.60021 -1.1346,-0.72097 -1.1059,-0.93381 0.128,-0.94774 2.1296,-0.024 0.8479,-5.2118 -2.5463,-10.30632 -3.2369,-4.85841 -11.0804,-8.71145 -25.9873,-12.76602 -14.7011,-3.99861 -26.9117,-4.1582 -43.342,-0.56652 -16.6453,3.63869 -21.3439,6.27766 -25.3403,14.23241 -6.2995,12.5391 -11.618,32.76446 -11.5121,43.77866 0.046,4.78588 0.077,4.82274 1.6471,1.93671 0.8802,-1.61812 2.4032,-6.01914 3.3847,-9.78003 0.9814,-3.7609 2.7441,-7.91658 3.917,-9.23486 2.6018,-2.92411 8.6286,-5.58991 12.6377,-5.58991 1.6314,0 2.9719,-0.65937 2.979,-1.46526 0.01,-0.80589 0.3533,-3.52736 0.7693,-6.04769 l 0.7563,-4.58243 -8.0905,0.62438 -8.0905,0.62436 5.857,-1.49739 c 3.2214,-0.82357 7.7381,-1.54804 10.0372,-1.60992 7.4442,-0.2004 15.5982,-3.42836 25.009,-9.90044 l 9.2129,-6.33597 5.9842,4.56051 c 8.6629,6.60195 14.8622,9.29193 24.4512,10.6097 12.5685,1.72721 18.5544,3.37553 9.1985,2.53295 l -7.4766,-0.67334 0.7348,3.9428 c 1.4529,7.7957 2.1399,15.85407 2.2849,26.80084 0.1471,11.10598 0.1342,11.15823 -4.795,19.40959 -2.7184,4.5505 -4.9425,9.42981 -4.9425,10.84291 0,1.44077 2.0884,4.65911 4.7547,7.32722 3.8852,3.88787 5.4383,4.69171 8.4927,4.39577 l 3.738,-0.36216 -0.093,-7.61934 z m -86.52,-71.62012 c 0.3121,-0.50531 7.2765,-3.09258 15.4763,-5.74949 8.1999,-2.6569 16.4032,-5.90173 18.2296,-7.21073 l 3.3206,-2.38001 -1.3207,2.46946 c -1.9024,3.557 -9.0061,7.84937 -16.4489,9.93916 -8.3311,2.33918 -19.9869,4.11362 -19.2569,2.93161 z m 74.1883,-1.64794 c -9.948,-1.98369 -18.8256,-5.82564 -22.3097,-9.65495 -2.4671,-2.71162 -2.5092,-2.92232 -0.4081,-2.04271 1.2886,0.53943 8.6684,3.15041 16.3997,5.80218 7.7313,2.65176 15.1111,5.44381 16.3997,6.20452 2.3428,1.38312 2.3428,1.38312 0,1.30863 -1.2886,-0.041 -5.8253,-0.76893 -10.0816,-1.61767 z m -74.624,76.17248 c 0.3365,-0.33671 -0.1635,-2.96867 -1.111,-5.84882 -2.6199,-7.96334 -1.1248,-15.24943 4.2198,-20.56546 2.3562,-2.3436 4.9941,-4.4915 5.8621,-4.77311 1.2849,-0.41691 1.323,-1.45993 0.2048,-5.61525 -0.7979,-2.96522 -1.0449,-7.49201 -0.5896,-10.80496 0.9131,-6.64307 0.2051,-6.96757 -6.7128,-3.07685 -5.1042,2.8707 -7.3056,6.21724 -8.5874,13.05494 -0.4602,2.45456 -2.6139,6.79271 -4.7861,9.64035 -3.3003,4.32653 -3.9494,6.16669 -3.9494,11.19586 0,5.63548 0.362,6.38055 5.6897,11.71192 5.1904,5.19393 8.1221,6.7203 9.7599,5.08138 z m 7.1581,-2.45543 c 5.8143,-2.93969 9.0203,-6.42397 9.0203,-9.80337 0,-4.08134 -4.6018,-17.60637 -5.9904,-17.60637 -2.3476,0 -7.8211,10.74652 -8.5835,16.8526 -0.7095,5.68296 -0.01,12.45256 1.2879,12.45256 0.2843,0 2.2038,-0.85295 4.2657,-1.89542 z m 75.1635,-90.2245 c 1.092,-1.66773 1.8027,-3.21517 1.5792,-3.43874 -0.2234,-0.22359 -5.9322,-1.5819 -12.6862,-3.01845 -15.5132,-3.29963 -35.1499,-3.50069 -53.572,-0.54853 -7.2481,1.1615 -13.1783,2.33128 -13.1783,2.59951 0,0.26821 0.8145,1.73156 1.8099,3.25186 1.7746,2.71023 1.9335,2.73192 8.1358,1.11116 3.4792,-0.90916 11.6197,-2.39646 18.0901,-3.30509 13.4197,-1.88454 21.0159,-1.19059 35.8058,3.271 12.0453,3.63364 11.6884,3.63168 14.0157,0.0772 z m 11.7344,-20.67586 c 4.31,-7.68678 7.7753,-12.58344 8.9177,-12.60122 5.6208,-0.0876 7.2742,-9.05056 2.1734,-11.78227 -5.7061,-3.05592 -11.2617,3.32768 -7.67,8.81309 1.9013,2.90384 1.8527,3.24353 -1.2981,9.05665 -4.1565,7.66856 -9.9017,13.81093 -12.918,13.81093 -3.3728,0 -8.0523,-4.07193 -11.5571,-10.0565 l -3.0431,-5.19622 -3.5393,2.98011 c -8.3086,6.99606 -14.4635,7.72305 -18.1191,2.14015 -3.1474,-4.80683 -1.4098,-11.95093 4.0929,-16.82829 2.5459,-2.2565 5.2194,-5.25491 5.9412,-6.66313 5.3077,-10.35478 -5.8791,-23.29724 -16.6085,-19.21512 -5.9353,2.25812 -9.0214,6.79456 -9.0214,13.26112 0,5.4084 0.3856,6.16774 5.768,11.35904 6.7943,6.5531 8.6099,12.28465 5.4298,17.14143 -4.2659,6.51501 -9.6077,6.25582 -17.7056,-0.85912 -2.9373,-2.58074 -4.5925,-3.38621 -4.9226,-2.39544 -1.4035,4.21358 -8.2885,12.66999 -11.1215,13.65983 -4.4088,1.54043 -8.3969,-1.5593 -14.1383,-10.98897 -4.3247,-7.10265 -4.4171,-7.47542 -2.7219,-10.97804 1.9735,-4.0776 1.0616,-6.96457 -2.8639,-9.06687 -4.8592,-2.60235 -10.2481,4.22896 -7.1648,9.08266 0.4915,0.77377 2.1458,1.87039 3.6763,2.43693 1.8139,0.67148 5.1276,5.07868 9.5184,12.65962 7.8278,13.51516 5.3576,12.72521 29.2177,9.34384 17.0798,-2.42049 32.5972,-1.9101 48.0276,1.5797 5.4763,1.23855 11.0019,2.16782 12.279,2.06505 1.6559,-0.13326 4.3439,-3.793 9.3712,-12.75896 z m 43.7738,-3.54573 c -0.096,-0.16118 -0.3024,-3.72176 -0.4584,-7.91239 -0.1644,-4.41485 -1.4486,-10.82132 -3.0535,-15.2327 -2.3498,-6.45881 -3.4138,-7.91677 -7.0161,-9.61411 -5.8284,-2.74629 -10.5631,-8.64932 -21.4446,-26.73621 -8.2979,-13.7925 -9.3595,-16.2204 -9.8085,-22.43273 -0.484,-6.69505 -0.676,-7.0543 -4.9315,-9.22679 -6.0696,-3.09861 -11.6829,-10.14888 -11.6829,-14.67363 0,-5.76557 5.4134,-15.07504 14.3084,-24.60627 9.4679,-10.14507 14.8374,-13.62214 28.2523,-18.29509 7.4338,-2.58949 11.6822,-3.33601 19.0544,-3.34819 8.6023,-0.0142 10.2417,0.37459 17.5711,4.16734 10.1391,5.24678 15.8617,11.38164 19.5675,20.97707 1.5926,4.12383 5.2522,10.56781 8.1324,14.31996 9.0303,11.76394 13.7211,24.09276 13.8101,36.29646 0.023,3.13052 0.7949,7.01057 1.7156,8.62235 2.2353,3.91291 2.1949,11.74725 -0.077,14.99356 -3.0207,4.3156 -10.8712,7.57467 -19.789,8.21518 l -8.1524,0.58556 4.6265,4.00205 c 2.5446,2.20113 7.9264,5.57799 11.9595,7.50414 9.2959,4.43954 9.8376,7.39942 2.3544,12.86461 -12.3465,9.01715 -39.2598,19.82288 -49.3717,19.82288 -2.9653,0 -5.4701,-0.13187 -5.5662,-0.29305 z m 18.7107,-6.23981 c 11.7861,-3.95346 26.4478,-10.95926 32.8798,-15.71105 l 5.1453,-3.80113 -7.1195,-3.80645 c -3.9156,-2.09355 -8.8667,-5.25424 -11.0022,-7.02377 -3.9094,-3.23926 -10.8429,-11.30702 -11.941,-13.89441 -0.3816,-0.89913 -1.0927,-0.56178 -2.0043,0.95089 -3.168,5.25685 -11.6519,12.07109 -19.0374,15.29074 -5.9235,2.58234 -7.6551,3.85491 -7.0758,5.20013 2.4903,5.78263 5.1844,17.64944 4.862,21.41552 -0.3543,4.13943 -0.1816,4.39577 2.9624,4.39577 1.8362,0 7.385,-1.35731 12.3307,-3.01624 z m -12.3878,-32.29859 c 5.1752,-2.64199 13.3033,-9.6906 15.1444,-13.13313 0.6906,-1.29141 1.4474,-10.83178 1.6816,-21.20082 0.4086,-18.08517 0.3088,-19.09146 -2.4501,-24.71384 -4.1781,-8.51483 -13.7968,-19.83327 -18.9238,-22.26783 -2.439,-1.15821 -6.5827,-2.34811 -9.2081,-2.64424 -4.1325,-0.46611 -5.5414,0.0482 -10.4923,3.82985 -5.668,4.32946 -12.7089,7.91229 -14.3893,7.32219 -0.9646,-0.33877 -2.2988,4.94143 -2.5141,9.95035 -0.1337,3.1101 0.07,3.22357 5.7875,3.22357 3.6525,0 5.6484,0.44974 5.2022,1.17221 -0.3982,0.64471 -1.5807,1.17221 -2.6278,1.17221 -1.0471,0 -4.2446,1.13393 -7.1056,2.51985 l -5.2017,2.51986 0.5823,7.26038 c 0.5245,6.53779 1.4994,8.76612 9.7953,22.38953 9.5414,15.66852 15.6509,23.46116 19.7489,25.18926 3.1526,1.32944 9.4167,0.24597 14.9706,-2.5894 z m -15.878,-8.80641 c -1.4376,-1.43857 0.5238,-2.76702 4.0854,-2.76702 3.057,0 3.3725,0.26044 2.1302,1.75831 -1.4932,1.80049 -4.8758,2.34943 -6.2156,1.00871 z m -3.1556,-5.41503 c 2.277,-2.3091 4.4219,-3.08305 9.6415,-3.47901 6.2044,-0.47066 6.5248,-0.37725 4.2277,1.23278 -1.367,0.95812 -4.6514,2.15006 -7.2988,2.64875 -2.6473,0.4987 -5.8676,1.28033 -7.1561,1.73698 -2.022,0.71655 -1.9418,0.42357 0.5857,-2.1395 z m -3.4657,-10.15559 c -0.7505,-1.40321 -0.8875,-5.71631 -0.3631,-11.42901 l 0.8422,-9.17528 1.2219,9.37766 1.2219,9.37765 3.4788,-0.38118 c 4.4398,-0.48646 6.4803,-2.18989 5.6136,-4.6864 -0.6278,-1.80829 -0.5118,-1.8049 1.4488,0.0424 3.0696,2.89231 0.8307,7.37085 -4.1868,8.37505 -6.0473,1.21028 -7.996,0.89502 -9.2773,-1.5009 z m -14.8275,-20.53735 c -0.4865,-1.26865 -1.3557,-1.42239 -3.4775,-0.61512 -3.9203,1.49153 -3.5597,-0.38635 0.7753,-4.03644 3.4777,-2.9283 8.1839,-3.83236 12.1073,-2.32579 2.4107,0.9257 1.209,2.80769 -1.7928,2.80769 -1.2886,0 -2.0465,0.47989 -1.6842,1.06643 1.1546,1.86953 -0.691,4.7946 -3.0253,4.7946 -1.2398,0 -2.5461,-0.76112 -2.9028,-1.69137 z m 26.3367,-7.50119 c -1.1332,-1.8158 -2.0216,-2.08855 -4.1567,-1.27622 -3.6331,1.38226 -3.488,-0.47496 0.2681,-3.43157 4.0726,-3.20566 8.823,-4.06341 12.9198,-2.33281 l 3.4249,1.44678 -3.1504,0.43096 c -2.4103,0.32972 -3.2359,1.16926 -3.5142,3.5735 -0.4469,3.85993 -3.8002,4.78018 -5.7915,1.58936 z m -4.1711,-11.39503 c 3.7797,-3.28507 10.2162,-3.76044 14.8701,-1.09823 2.8371,1.62295 2.7457,1.67741 -2.9285,1.74474 -3.2214,0.0382 -7.9656,0.55112 -10.5427,1.13977 l -4.6856,1.07027 3.2867,-2.85655 z m 60.77,52.76829 c 10.6557,-3.63323 13.6661,-10.22582 6.2792,-13.75081 -7.551,-3.60328 -13.5667,-10.27168 -18.3443,-20.33463 -3.6217,-7.62814 -5.6974,-10.44344 -10.1135,-13.71676 -3.0561,-2.26525 -5.729,-3.94607 -5.9398,-3.73515 -0.2107,0.21091 0.4464,1.98879 1.4603,3.95082 1.2515,2.42181 1.8435,6.75677 1.8435,13.49952 0,9.58817 0.1467,10.12816 4.2372,15.58995 2.3305,3.11177 6.6793,8.19239 9.6641,11.29025 3.3598,3.48705 4.5345,5.31052 3.0841,4.78721 -2.7907,-1.00686 -12.2818,-7.59502 -12.3419,-8.56704 -0.023,-0.37424 -1.328,-2.25528 -2.8997,-4.18006 l -2.8575,-3.49963 0.6955,4.67183 c 1.9383,13.02037 11.8947,18.54235 25.2328,13.9945 z m 8.5139,-16.64896 c -0.4911,-1.12825 -1.3,-6.00756 -1.7976,-10.84291 -1.5786,-15.3389 -3.1913,-19.10055 -15.7565,-36.75123 -2.227,-3.12827 -4.9741,-8.34031 -6.1047,-11.58233 -2.7602,-7.91498 -8.6085,-14.00545 -18.2597,-19.01573 -6.4296,-3.33783 -9.3194,-4.15531 -14.6893,-4.15531 -14.8142,0 -32.1867,7.31241 -42.5308,17.90199 -7.9674,8.15655 -14.7775,18.11759 -15.7652,23.05975 -0.628,3.14177 -0.043,4.27136 4.6433,8.96044 6.3051,6.30948 9.1214,6.43924 10.3038,0.47476 0.4464,-2.25213 1.3367,-6.69657 1.9783,-9.87655 1.0896,-5.39952 0.9806,-5.92824 -1.6482,-7.99747 -3.2788,-2.58091 -3.6244,-6.24073 -0.8762,-9.27954 2.81,-3.10709 4.0889,-2.62854 2.4711,0.92459 -1.2557,2.75783 -1.0688,3.35082 1.8476,5.86103 1.7845,1.53604 4.206,2.79278 5.3811,2.79278 1.1751,0 5.1913,-2.37371 8.9249,-5.27492 3.7337,-2.90122 7.6827,-5.27493 8.7756,-5.27493 1.5049,0 2.1792,-1.44877 2.7784,-5.96902 1.2356,-9.32055 7.5788,-13.80387 17.7752,-12.5633 2.9876,0.36349 2.5488,0.69956 -3.5683,2.7332 -7.2013,2.39409 -10.0456,5.39572 -11.7764,12.42819 -0.6837,2.77779 -0.3727,3.14838 3.2056,3.82014 2.1796,0.40917 5.9118,1.73825 8.2939,2.95354 3.3987,1.73394 5.2758,1.99004 8.7198,1.18969 7.3784,-1.71462 15.0203,-1.28951 17.5361,0.97554 4.3116,3.88184 14.611,16.70394 13.4175,16.70394 -0.6572,0 -4.9286,-3.4287 -9.492,-7.61934 l -8.297,-7.61934 -8.2682,0 -8.2683,0 5.6375,6.51452 c 3.3941,3.92216 8.2292,7.84908 12.1504,9.8682 7.3525,3.78594 14.7121,11.25502 15.8802,16.11646 1.4189,5.90519 4.9169,11.59787 10.5282,17.13368 5.7231,5.64611 8.4043,6.98066 6.8499,3.40948 z m -263.8257,61.31388 c -11.053,-3.5817 -31.4443,-13.62968 -36.2366,-17.85593 -6.1507,-5.42417 -5.5985,-7.20404 3.9141,-12.618 4.5984,-2.6171 10.1333,-6.20311 12.2998,-7.96892 l 3.939,-3.21057 -7.0284,-0.049 c -10.515,-0.0733 -19.2895,-3.97201 -22.1537,-9.84325 -1.9635,-4.02492 -2.0608,-5.18181 -0.7884,-9.37765 0.7983,-2.63247 1.909,-8.37571 2.4682,-12.76273 1.1398,-8.94276 3.9842,-19.51843 6.678,-24.8299 0.9853,-1.94265 4.4001,-7.07863 7.5886,-11.41328 3.1884,-4.33466 7.0914,-11.23244 8.6732,-15.32839 3.4764,-9.00146 8.6516,-14.29801 19.5952,-20.05446 7.0839,-3.72622 8.9964,-4.21034 16.6321,-4.21034 5.9723,0 11.4406,0.89955 17.7666,2.92267 14.4803,4.63089 22.1415,9.54287 31.2175,20.01491 9.3114,10.74359 12.7461,16.86545 12.9069,23.00452 0.095,3.61271 -0.7129,5.24803 -4.5497,9.21301 -2.5657,2.65135 -6.0438,5.54538 -7.7292,6.43116 -2.6031,1.36812 -3.1826,2.65709 -3.8505,8.56461 -0.6711,5.9359 -2.1722,9.24731 -10.2523,22.61616 -11.9318,19.74146 -15.1781,23.8249 -20.9752,26.38434 -4.3695,1.92913 -4.8488,2.64799 -7.6632,11.49257 -2.0938,6.58047 -2.81,10.88548 -2.3672,14.23015 0.3841,2.90091 0.098,5.33218 -0.7228,6.15408 -2.125,2.12641 -10.0568,1.50956 -19.362,-1.50576 z m 16.1547,-6.80628 c 0.014,-3.42156 1.2604,-9.65766 2.8077,-14.04474 l 2.7831,-7.89066 -4.0337,-1.1145 c -6.5605,-1.81269 -13.8322,-6.66919 -19.603,-13.09211 -2.9738,-3.30986 -5.4069,-5.46345 -5.4069,-4.78575 0,3.09092 -13.2993,15.35948 -21.0918,19.45713 -4.6502,2.44528 -7.9117,4.86049 -7.4887,5.54551 3.6918,5.97746 38.9026,21.66394 49.3729,21.9957 2.4062,0.0762 2.6378,-0.45228 2.6604,-6.07058 z m 13.6036,-27.74448 c 4.5801,-2.7947 7.37,-6.50809 17.9481,-23.88924 9.816,-16.12878 11.1626,-20.75265 6.6437,-22.81299 -2.4848,-1.13295 -3.1862,-1.05191 -4.0353,0.46625 -1.4277,2.55304 -5.4094,1.5179 -5.8441,-1.51934 -0.2001,-1.39849 -1.4944,-2.81782 -2.9285,-3.21157 -2.151,-0.59057 -2.2834,-0.89369 -0.8127,-1.85984 3.9263,-2.57929 10.4448,-0.79858 14.3821,3.92888 2.0695,2.48488 2.0804,2.47503 1.7571,-1.59925 -0.2982,-3.75827 -0.8373,-4.30319 -6.4764,-6.54615 -8.4949,-3.37882 -8.9331,-4.31872 -1.7879,-3.83498 l 6.1178,0.41417 -0.6274,-4.68882 c -1.0694,-7.99211 -1.6819,-10.08315 -2.7587,-9.41721 -1.6876,1.04371 -6.7151,-1.35775 -13.3726,-6.38765 -6.8687,-5.18944 -9.4181,-5.60443 -17.5004,-2.84863 -6.2011,2.11439 -14.2579,10.22421 -20.4005,20.53483 l -3.7676,6.3241 -0.1395,19.7186 c -0.1364,19.29143 -0.075,19.81656 2.8512,24.24091 4.6523,7.03482 17.5089,14.90862 24.7374,15.14995 1.2885,0.043 3.9949,-0.92989 6.0142,-2.16202 z m -6.9904,-10.25455 c -1.4649,-1.46597 -0.7847,-2.73514 1.4661,-2.73514 3.314,0 6.0323,1.26748 5.2913,2.46723 -0.7542,1.22107 -5.6124,1.41367 -6.7574,0.26791 z m 2.7333,-4.72855 c -3.5435,-0.93288 -7.141,-2.37482 -7.9944,-3.20432 -1.269,-1.23335 -0.4151,-1.40795 4.6856,-0.95815 6.2301,0.54939 11.5086,2.84759 11.5086,5.01069 0,1.3354 0.1559,1.35152 -8.1998,-0.84822 z m 0.5857,-9.40467 c -5.0631,-1.24539 -7.0103,-5.62592 -3.7167,-8.36127 1.2131,-1.00746 1.5348,-0.7321 1.4643,1.25343 -0.071,1.98905 0.8018,2.73155 3.9965,3.40119 5.0096,1.0501 5.7823,0.0501 5.9907,-7.7533 0.3188,-11.93674 1.9404,-13.25962 2.0836,-1.6997 0.171,13.81359 -0.9657,15.33715 -9.8184,13.15965 z m -7.3798,-28.69139 c -0.7732,-0.77365 -1.4057,-2.35613 -1.4057,-3.51662 0,-1.49713 -0.9357,-2.13774 -3.2214,-2.20558 -3.2142,-0.0954 -3.2126,-0.0995 0.7286,-1.82004 4.8757,-2.12851 9.4763,-1.23947 13.6589,2.63947 3.4981,3.24417 3.232,4.85759 -0.474,2.87288 -1.9734,-1.0569 -2.6155,-0.86769 -3.6557,1.07723 -1.4269,2.66799 -3.5565,3.0283 -5.6307,0.95266 z m 7.3798,-10.31541 c -1.9328,-0.49215 -6.1235,-0.95724 -9.3127,-1.03353 -6.8763,-0.16446 -5.9883,-2.30336 1.3661,-3.29046 4.726,-0.63432 12.0465,2.01161 12.0465,4.35409 0,0.62816 -0.1318,1.0797 -0.2928,1.00342 -0.1611,-0.0763 -1.8743,-0.54137 -3.8071,-1.03352 z m -40.4613,49.67914 c 4.624,-3.89344 7.0861,-8.64087 7.0406,-13.57558 -0.032,-3.46028 -0.1715,-3.62083 -1.3256,-1.52347 -3.2104,5.83426 -14.1511,14.65258 -18.1793,14.65258 -0.4902,0 2.3082,-3.29683 6.2188,-7.32629 11.5883,-11.94049 12.3963,-13.5584 12.6282,-25.28474 0.1403,-7.09686 0.8162,-11.32688 2.2346,-13.98418 2.7137,-5.0844 1.0866,-4.8018 -5.4368,0.94424 -3.9392,3.46973 -6.0782,6.62328 -7.9186,11.67415 -3.1971,8.77451 -8.486,14.96425 -16.4648,19.26935 -7.3333,3.95684 -7.8563,4.56153 -7.1486,8.26597 1.0434,5.4621 9.3475,9.7264 19.2311,9.87553 4.2718,0.0645 6.2751,-0.59177 9.1204,-2.98756 z m -18.8097,-20.08093 c 5.1787,-5.18966 7.4564,-8.65642 9.9012,-15.07011 3.6353,-9.53643 5.8137,-11.92958 15.6487,-17.19174 4.6217,-2.4728 8.7549,-5.91543 11.9308,-9.93758 l 4.8594,-6.15409 -7.8283,0 -7.8283,0 -6.5487,6.24969 c -3.6017,3.43732 -7.8664,6.9532 -9.4771,7.81306 -2.523,1.34692 -2.2931,0.76557 1.6603,-4.19831 9.9425,-12.48391 11.1243,-13.38168 17.6048,-13.37452 3.2561,0.004 7.8477,0.5423 10.2037,1.19714 3.558,0.98891 4.947,0.8038 8.1998,-1.0928 2.154,-1.25587 5.893,-2.64452 8.3091,-3.0859 2.416,-0.44137 4.3927,-1.02449 4.3927,-1.29581 0,-1.4942 -3.8727,-9.42135 -5.4603,-11.1768 -1.0212,-1.12918 -4.6642,-2.86977 -8.0955,-3.86797 -8.8888,-2.58581 -8.7046,-3.85101 0.4009,-2.75406 10.0344,1.20885 13.2342,4.07535 14.0516,12.58764 0.4527,4.71476 1.0084,5.9654 2.6505,5.9654 1.1427,0 5.2333,2.37372 9.0901,5.27493 3.8568,2.90121 7.6252,5.27493 8.3741,5.27493 0.7489,0 2.9785,-0.83666 4.9546,-1.85925 3.205,-1.65849 3.5229,-2.29137 2.944,-5.86103 -0.7452,-4.59504 0.5941,-5.17278 3.2373,-1.39654 2.5793,3.68502 2.2693,6.25133 -1.0728,8.88206 -2.8001,2.20405 -2.8564,2.52827 -1.6938,9.75579 1.9811,12.315 2.1371,12.7509 4.5631,12.7509 1.2491,0 4.4019,-2.0283 7.0061,-4.50733 6.6704,-6.34971 6.4921,-10.21032 -0.9607,-20.80433 -10.9685,-15.59165 -22.4212,-23.64931 -39.9717,-28.12257 -11.0663,-2.82055 -19.7016,-1.75774 -29.7093,3.65658 -8.43,4.56074 -13.2685,10.32334 -16.11,19.18685 -0.7434,2.31889 -4.7297,8.94271 -8.8583,14.71961 -8.2807,11.5865 -11.8693,21.01273 -12.5211,32.88947 -0.2129,3.87998 -1.0168,8.23179 -1.7864,9.6707 -2.5211,4.71402 0.8863,2.9441 7.9395,-4.12401 z m -73.6835,422.30242 c -6.76487,-8.03041 -13.20842,-16.59388 -14.31901,-19.02994 -3.82226,-8.38411 -2.12659,-15.87566 4.94017,-21.82602 4.77734,-4.0226 9.99934,-4.87125 16.39854,-2.66503 2.8537,0.98385 5.3706,1.60672 5.593,1.38413 0.2224,-0.22258 2.2881,-5.86977 4.5905,-12.54931 2.8889,-8.38124 4.2297,-14.40858 4.3269,-19.45058 0.1752,-9.08288 1.9273,-10.07616 6.5384,-3.70645 7.0781,9.77768 7.2906,15.0481 1.2389,30.72154 -3.9186,10.14878 -4.4221,15.02064 -1.7793,17.21546 1.4696,1.22048 3.1951,0.17151 10.5427,-6.40898 8.9716,-8.03504 10.0464,-10.17263 7.1252,-14.1704 -1.2291,-1.68194 -1.3243,-2.6772 -0.3667,-3.83186 1.0542,-1.27111 1.6325,-1.12903 3.1245,0.7678 1.007,1.28015 5.7319,6.88607 10.4997,12.45756 6.4292,7.51286 8.3278,10.47123 7.349,11.45075 -0.9789,0.97953 -1.8804,0.81307 -3.4897,-0.6443 -4.6147,-4.17904 -5.011,-3.9488 -30.6849,17.82525 -17.8935,15.17556 -21.1564,19.52468 -17.4388,23.24476 1.2706,1.27147 0.5384,3.8716 -1.0799,3.83478 -0.4452,-0.0101 -6.3443,-6.58875 -13.1092,-14.61916 z m 14.4472,-16.13284 11.4138,-9.67071 -4.6853,-4.39577 c -6.1043,-5.72709 -11.5923,-5.99308 -18.6151,-0.90227 -8.67996,6.29203 -10.80403,14.58832 -5.385,21.03289 1.668,1.9836 3.6683,3.60656 4.4453,3.60656 0.7769,0 6.5488,-4.35182 12.8263,-9.6707 z m 451.2059,-23.11969 c -0.457,-0.7398 -0.172,-2.93657 0.6331,-4.88169 1.3566,-3.27738 1.2146,-3.77943 -1.9371,-6.85002 -5.3741,-5.23566 -42.7305,-30.49912 -45.0982,-30.49912 -3.9834,0 -11.6018,10.56976 -11.6018,16.09633 0,1.24391 1.302,4.83527 2.8934,7.98082 2.1358,4.2215 2.524,5.94768 1.4824,6.59184 -1.562,0.96601 -5.0914,-1.95551 -10.352,-8.56902 l -3.4002,-4.27467 15.0436,-21.69888 c 10.1498,-14.64012 15.5076,-21.41189 16.47,-20.81667 1.0873,0.67243 0.9372,1.90889 -0.6313,5.20027 -2.0415,4.2839 -2.035,4.34029 0.8108,7.12618 5.3222,5.21012 43.6518,31.11911 46.0375,31.11911 1.3006,0 3.5918,-1.1535 5.0915,-2.56334 1.7832,-1.67639 3.1244,-2.1653 3.8762,-1.41299 0.7518,0.75232 -1.9059,5.59129 -7.6811,13.98522 -10.2716,14.92932 -10.541,15.24101 -11.6368,13.46663 z M 97.960319,740.50264 c -6.33149,-11.72522 -11.67809,-21.71927 -11.88132,-22.20901 -0.20324,-0.48975 2.58272,-2.85195 6.191,-5.24935 4.78768,-3.18102 6.91017,-4.00904 7.854401,-3.06416 0.94424,0.94489 0.45831,2.28847 -1.798231,4.97205 -3.7691,4.48238 -3.94419,8.92794 -0.61282,15.55923 4.907331,9.76834 4.514211,9.70494 17.542871,2.82925 6.35686,-3.35474 11.56869,-6.38661 11.58185,-6.73748 0.0132,-0.35088 -1.69113,-3.51584 -3.78731,-7.03324 -3.56139,-5.97605 -4.13731,-6.41891 -8.78554,-6.75573 -2.87009,-0.20798 -4.97381,-0.95176 -4.97315,-1.75831 0.002,-2.15104 18.41535,-11.74049 19.04686,-9.91926 0.28382,0.81848 -0.45952,2.74616 -1.65185,4.28371 -2.93131,3.77999 -2.76088,5.25957 1.45516,12.63348 l 3.62304,6.33676 7.79816,-4.29784 c 14.74059,-8.12407 15.41309,-8.6478 15.40129,-11.99557 -0.014,-4.05089 -6.2557,-14.9287 -9.65332,-16.8241 -1.44949,-0.80861 -5.49316,-1.75022 -8.98594,-2.09248 -10.74262,-1.05265 -8.66472,-3.00462 8.28199,-7.78007 1.49039,-0.41998 4.92027,4.94777 15.01877,23.50423 7.1981,13.22668 12.7442,24.6041 12.3248,25.28314 -0.4658,0.75434 -2.3232,-0.13664 -4.7744,-2.29024 -3.3503,-2.94362 -4.4896,-3.34314 -6.9089,-2.4227 -4.5185,1.71912 -44.27503,23.57124 -46.69987,25.66853 -1.63947,1.41801 -2.02239,2.94304 -1.57572,6.27549 1.1832,8.82743 -2.58079,4.28969 -14.031821,-16.91633 z M 621.20143,723.52759 c -16.6206,-5.81897 -26.8178,-20.72105 -25.4917,-37.2531 1.1159,-13.91095 9.0809,-26.30237 20.52,-31.9234 8.9981,-4.42162 22.3837,-4.67536 31.322,-0.59376 7.6707,3.50278 16.1912,11.99514 19.519,19.45459 8.0581,18.06282 -2.6444,44.17815 -20.6162,50.30594 -7.153,2.43895 -18.3023,2.44326 -25.2531,0.009 z m 30.5022,-13.27853 c 10.7626,-2.99198 15.846,-15.49951 10.23,-25.17092 -5.7346,-9.87568 -20.9774,-18.15946 -35.1669,-19.11153 -10.6671,-0.71574 -15.4094,0.35817 -20.2108,4.57675 -10.9944,9.65986 -6.2474,24.0372 10.9165,33.06276 13.2481,6.96642 24.9199,9.23145 34.2312,6.64294 z M 135.26427,666.26285 c -0.73978,-1.62472 -2.57146,-3.42065 -4.07042,-3.99094 -1.49896,-0.57029 -16.66049,-2.4269 -33.692301,-4.1258 -36.09896,-3.60081 -35.82803,-3.55497 -37.30274,-6.31237 -0.97873,-1.83003 2.42491,-4.69899 25.12428,-21.17745 27.849501,-20.21716 32.687371,-24.61993 31.852901,-28.98816 -0.53848,-2.81878 2.36816,-5.04058 3.23239,-2.4708 1.62435,4.82992 7.62503,26.63063 7.62503,27.70201 0,2.13448 -2.84837,1.45425 -4.41377,-1.05408 -0.80471,-1.28942 -1.9034,-2.34441 -2.44152,-2.34441 -0.53813,0 -4.23441,2.18784 -8.21397,4.86188 -4.95356,3.32852 -7.06713,5.45427 -6.70155,6.74019 0.2937,1.03306 1.62589,5.63948 2.96041,10.23648 l 2.4264,8.35818 7.31345,0.5651 c 8.93933,0.69074 11.41336,-0.39624 11.41336,-5.01452 0,-2.14658 0.60834,-3.47538 1.59108,-3.47538 1.69485,0 8.21041,20.62695 7.08907,22.44257 -1.08857,1.76253 -2.41049,1.0819 -3.7921,-1.9525 z M 105.7767,653.27948 c 0,-1.71724 -3.8656,-14.05315 -4.67873,-14.93077 -0.49783,-0.5373 -5.486121,2.20083 -11.085091,6.08475 l -10.17995,7.06166 3.89349,0.65625 c 2.14142,0.36094 6.79272,0.82206 10.33622,1.02471 3.54351,0.20266 7.628781,0.46605 9.078401,0.58531 1.44961,0.11926 2.63566,-0.0976 2.63566,-0.48191 z m 539.01333,-18.05591 c -8.1383,-2.92959 -13.6445,-7.21078 -17.8899,-13.90974 -4.6522,-7.34069 -6.0612,-13.30283 -5.4391,-23.01542 1.1701,-18.26968 11.9953,-31.05282 29.2525,-34.5434 13.1134,-2.65245 28.87,3.24637 36.9008,13.81462 14.581,19.18809 6.0469,50.72383 -15.7367,58.15136 -7.3572,2.50855 -19.3489,2.28834 -27.0876,-0.49742 z m 34.6608,-16.94513 c 7.4794,-3.48457 10.8484,-8.41541 10.8484,-15.87731 0,-13.57172 -15.0349,-22.66529 -37.3043,-22.5628 -8.3868,0.0386 -10.7347,0.52413 -16.4011,3.39153 -5.3958,2.73044 -7.122,4.37314 -9.3775,8.92356 -3.4075,6.87477 -2.7514,12.06911 2.2435,17.76194 6.4605,7.3631 17.4742,11.04881 33.3202,11.15051 8.8038,0.0565 11.5534,-0.40324 16.6708,-2.78743 z M 46.692919,568.11409 c -0.8172,-20.69889 -0.10238,-28.31644 3.45893,-36.86047 8.3877,-20.12312 38.24556,-24.34963 54.823361,-7.7605 9.11192,9.11815 11.85237,19.00202 13.02187,46.96539 0.60889,14.55881 0.46704,16.70394 -1.10455,16.70394 -1.06336,0 -2.08936,-1.432 -2.50074,-3.49033 -1.25068,-6.25767 -1.63966,-6.32449 -31.742521,-5.45296 -29.91468,0.86607 -31.92863,1.33073 -31.92863,7.36666 0,1.55419 -0.70175,2.74884 -1.6147,2.74884 -1.27875,0 -1.7808,-4.20715 -2.41302,-20.22057 z m 56.448831,-5.10085 c 7.71399,-0.79767 9.66338,-2.6899 9.66338,-9.38006 0,-7.21366 -2.35143,-12.18033 -8.09644,-17.10122 -6.504251,-5.57119 -12.901231,-7.21741 -25.554161,-6.57618 -18.73122,0.94927 -28.43389,9.62886 -28.43389,25.43571 0,9.16583 0.0664,9.18913 24.78856,8.69077 11.81508,-0.23816 24.24972,-0.71923 27.632551,-1.06902 z m 525.75818,-18.39661 c -0.3196,-2.06598 -0.8881,-7.44879 -1.2633,-11.96179 -0.3751,-4.51299 -0.9835,-10.44729 -1.352,-13.18732 -0.8446,-6.281 1.9228,-6.96562 4.0756,-1.00824 0.7897,2.18551 2.4186,4.23081 3.6198,4.54514 2.0554,0.53788 23.8391,-1.10489 26.5294,-2.00066 1.2882,-0.42891 -0.7276,-28.07831 -2.1509,-29.50259 -0.3808,-0.38106 -6.0198,-0.11288 -12.5311,0.59595 -6.5113,0.70884 -12.3076,1.2888 -12.8805,1.2888 -2.0302,0 -4.7234,3.72387 -4.7234,6.53087 0,1.63013 -0.6864,2.84679 -1.6062,2.84679 -1.7358,0 -2.4495,-4.03455 -3.7843,-21.39278 -0.6951,-9.03985 -0.5611,-10.25681 1.1295,-10.25681 1.0662,0 1.9182,0.93716 1.9182,2.10997 0,3.74973 2.5342,4.92542 10.4841,4.86386 13.1689,-0.10198 49.0321,-4.15511 50.9644,-5.75983 0.9941,-0.82559 1.8074,-3.01895 1.8074,-4.87414 0,-5.07181 3.0765,-4.26436 3.8966,1.02268 0.375,2.41767 1.0497,9.87329 1.4994,16.56803 0.676,10.06396 0.5387,12.07924 -0.7926,11.63516 -0.8857,-0.29541 -1.9004,-1.76681 -2.2549,-3.26977 -1.0553,-4.47339 -3.3871,-5.0895 -15.7514,-4.16188 l -11.4782,0.86114 0.779,9.55076 c 0.4285,5.25291 1.0924,12.09757 1.4753,15.21036 l 0.6962,5.65962 10.0868,-0.8302 c 13.3748,-1.10086 15.0565,-1.8276 16.0111,-6.91943 1.4213,-7.58167 3.6366,-4.86682 4.5,5.51499 0.4424,5.31889 1.1204,12.70379 1.5067,16.4109 0.5867,5.63034 0.4009,6.74018 -1.1285,6.74018 -1.082,0 -2.1467,-1.43886 -2.603,-3.51772 -0.5253,-2.39307 -1.67,-3.74324 -3.5806,-4.22309 -3.661,-0.91948 -53.9776,3.91348 -56.8698,5.46241 -1.3836,0.74098 -2.2196,2.45039 -2.2196,4.53864 0,4.92635 -3.2729,5.66921 -4.0092,0.91 z m -512.8892,-47.01326 c 1.11926,-5.85902 -1.93568,-7.01426 -31.170851,-11.78731 -26.11631,-4.26385 -27.26723,-4.35579 -29.47694,-2.35467 -1.26472,1.14534 -2.29949,3.05567 -2.29949,4.24517 0,1.1895 -0.7907,2.16274 -1.75711,2.16274 -0.9664,0 -1.75498,-0.92312 -1.75239,-2.05137 0.005,-2.09875 3,-21.74117 4.20049,-27.54685 0.98781,-4.77714 3.99463,-4.14643 3.99463,0.83792 0,2.76445 0.698,4.43529 2.1857,5.23202 2.92406,1.56598 51.356341,9.66688 55.148231,9.22422 2.0332,-0.23735 3.54958,-1.54868 4.75382,-4.11098 1.06998,-2.27661 2.29237,-3.43391 3.09537,-2.93052 0.9697,0.60791 0.67398,5.01457 -1.09814,16.36368 -1.99886,12.80124 -2.77119,15.53175 -4.39322,15.53175 -1.44617,0 -1.82537,-0.74664 -1.4301,-2.8158 z m 500.0245,-46.70994 c -12.7974,-21.86536 -12.9946,-40.52677 -0.5722,-54.12821 12.8619,-14.08257 33.7857,-16.34093 48.8292,-5.27024 9.3046,6.84733 17.3317,22.54861 19.4603,38.06478 l 0.6514,4.74793 -8.0463,4.34895 c -6.9812,3.77328 -8.1444,4.09283 -8.7882,2.41406 -0.4639,-1.20961 0.11,-2.53205 1.531,-3.52802 1.2501,-0.87623 3.4301,-3.46679 4.8445,-5.7568 3.7299,-6.03926 2.9502,-17.26537 -1.6153,-23.25505 -6.0572,-7.94691 -16.8241,-11.29782 -28.5321,-8.87986 -12.9927,2.6833 -23.1124,9.59307 -27.7817,18.96942 -7.2053,14.46911 -0.6324,27.9204 15.664,32.05585 3.2645,0.82841 5.476,2.09757 5.708,3.27572 0.3259,1.65479 -0.9348,1.92335 -9.029,1.92335 l -9.4078,0 -2.9158,-4.98188 z m -493.05659,3.04954 c -0.41778,-0.41807 -0.44677,-2.00739 -0.0644,-3.53183 0.91946,-3.66595 -1.00049,-5.76974 -8.86759,-9.71675 -6.3146,-3.16809 -32.351971,-13.40874 -39.157681,-15.40094 -4.2847,-1.25424 -10.76424,1.31154 -11.83461,4.6863 -0.81224,2.56089 -2.36732,3.19117 -3.46969,1.40628 -0.35502,-0.57484 0.79275,-5.04679 2.5506,-9.93768 l 3.19609,-8.89252 28.71537,-10.70224 c 15.793451,-5.88622 29.417981,-11.08646 30.276731,-11.55606 2.93703,-1.60614 -34.676911,-14.7479 -38.623421,-13.49446 -1.17248,0.37239 -3.04699,2.22744 -4.16558,4.12235 -2.03739,3.45138 -3.29224,4.21093 -4.23955,2.56613 -0.75624,-1.31306 8.16462,-24.36046 9.32525,-24.09215 0.54988,0.12713 1.15208,1.18212 1.33823,2.34442 1.14552,7.15239 1.50018,7.55877 9.95543,11.40713 4.646731,2.11493 18.092661,7.44836 29.879841,11.85206 18.76639,7.01114 21.38817,8.30234 21.08527,10.38415 -0.29,1.99298 -5.79211,4.27817 -34.02382,14.13107 -18.522851,6.4645 -33.671771,12.02263 -33.664271,12.35141 0.0174,0.76318 31.787151,12.44791 38.224451,14.05873 5.95362,1.48979 8.19851,0.71502 10.4278,-3.59891 1.08186,-2.0935 2.35195,-3.09272 3.41314,-2.68523 1.42369,0.5467 1.31222,1.60282 -0.70721,6.69985 -1.31853,3.32797 -3.43893,8.82019 -4.71203,12.20494 -2.22743,5.92205 -3.22443,7.02897 -4.85833,5.39395 z m 465.74249,-77.2489 c -8.3557,-4.16664 -14.9269,-13.57159 -17.2488,-24.68686 -0.7014,-3.35778 -0.199,-4.1319 6.3874,-9.84168 8.9091,-7.72339 11.1995,-6.77746 6.0527,2.49975 -4.4254,7.97683 -5.4277,12.83105 -3.7191,18.01192 1.6881,5.11846 5.1565,7.62703 10.5452,7.62703 9.5885,0 12.8984,-6.20872 12.7899,-23.99143 -0.087,-14.30112 1.6682,-19.42333 8.1335,-23.73198 8.3741,-5.58075 17.8542,-4.57063 25.9708,2.7672 4.4584,4.03063 9.9969,13.70381 10.7276,18.73599 0.456,3.14056 -10.5669,12.82138 -12.4515,10.93548 -0.7976,-0.79809 -0.6478,-2.03578 0.4588,-3.79287 5.9289,-9.41374 6.2793,-14.32913 1.4105,-19.78208 -3.667,-4.10681 -8.5331,-4.91031 -13.5302,-2.23412 -4.4023,2.35765 -5.3956,6.21881 -5.3956,20.97307 0,17.10861 -2.1688,22.65789 -10.498,26.86093 -6.7976,3.43018 -12.2469,3.33293 -19.6332,-0.35035 z M 136.54246,362.39981 c -29.01772,-12.04268 -32.72391,-43.70052 -8.19987,-70.04237 l 7.30495,-7.84642 7.8952,4.50684 c 4.34236,2.47877 7.72119,5.03434 7.50859,5.67906 -0.2209,0.66981 -3.40959,1.00085 -7.43992,0.77241 -13.14288,-0.74497 -22.45575,7.32009 -23.53842,20.38458 -1.97749,23.86229 35.13114,45.14327 53.61964,30.7497 4.1585,-3.23748 7.0374,-8.03149 7.0463,-11.73394 0.01,-2.6464 -1.3557,-4.11418 -7.8868,-8.4985 -4.3419,-2.91478 -9.0393,-5.29961 -10.4385,-5.29961 -1.3992,0 -3.8306,1.53004 -5.4031,3.40011 -1.8174,2.16141 -3.3976,3.06698 -4.3375,2.48573 -1.0695,-0.66143 1.0238,-4.53578 7.5669,-14.00551 8.7111,-12.60745 12.0575,-15.35045 11.4203,-9.36116 -0.1656,1.55553 0.098,3.39762 0.5857,4.09351 0.9777,1.39527 17.3474,13.01697 19.2102,13.63832 1.4568,0.48595 -4.0287,13.56527 -8.9898,21.43482 -4.5014,7.14034 -12.6186,14.75885 -19.4672,18.27124 -6.9223,3.55021 -19.62037,4.20833 -26.45667,1.37119 z M 350.60043,213.37509 c 0,-1.49826 1.1049,-2.41902 3.4711,-2.89257 5.5841,-1.11758 9.4451,-10.81055 11.2359,-28.20722 l 0.8333,-8.09523 -8.2172,0.76423 c -9.0512,0.8418 -21.7127,4.3883 -25.6926,7.19651 -1.4055,0.99177 -2.7234,2.98543 -2.9285,4.43037 -0.2392,1.68472 -1.3185,2.76152 -3.0087,3.00173 l -2.6356,0.37458 0,-21.18125 0,-21.18124 2.9285,0 c 2.2807,0 2.9285,0.60049 2.9285,2.71466 0,4.94048 12.7554,9.91388 30.1637,11.76102 5.7634,0.61153 6.1473,0.49026 6.109,-1.92969 -0.1,-6.3242 -3.521,-21.23104 -6.2322,-27.15712 -2.4715,-5.40215 -3.4697,-6.48859 -5.9619,-6.48859 -2.4119,0 -2.9933,-0.56918 -2.9933,-2.93052 l 0,-2.93052 21.1668,0 21.1668,0 -0.3744,2.63747 c -0.238,1.67743 -1.3158,2.77147 -2.9608,3.0056 -5.0647,0.72085 -9.75,12.45745 -11.4996,28.80629 l -0.8421,7.86875 6.2927,-0.73855 c 20.1008,-2.35917 29.46,-5.90335 30.0915,-11.39523 0.2618,-2.2773 1.0355,-3.22357 2.6356,-3.22357 2.1552,0 2.265,1.02308 2.265,21.09972 0,20.07664 -0.1097,21.09971 -2.265,21.09971 -1.5925,0 -2.375,-0.94583 -2.6356,-3.1857 -0.7164,-6.15689 -10.427,-10.17247 -28.3463,-11.7219 l -8.0618,-0.69708 0.8371,8.93876 c 1.6381,17.49308 5.568,26.83058 11.5952,27.55045 2.1612,0.25813 3.1055,1.06011 3.1055,2.63746 0,2.15666 -1.0224,2.26656 -21.0853,2.26656 -19.8358,0 -21.0853,-0.13025 -21.0853,-2.19789 z"
       id="path3347"
       inkscape:connector-curvature="0" />
  </g>
</svg>
